<svg xmlns="http://www.w3.org/2000/svg" xmlns:xlink="http://www.w3.org/1999/xlink" xmlns:lucid="lucid" width="2992" height="2312"><g transform="translate(0 0)" lucid:page-tab-id="0_0"><path d="M0 0h2992v2312H0z" fill="#fff"/><path d="M1194.35 136h460v456h-460z" fill="#fff"/><path d="M1194.35 208h460v32h-460zM1194.35 272h460v32h-460zM1194.35 336h460v32h-460zM1194.35 400h460v32h-460zM1194.35 464h460v32h-460zM1194.35 528h460v32h-460z" fill="#e6e6e6"/><path d="M1194.35 136h460v40h-460z" fill="#ccc"/><path d="M1194.35 136h460v456h-460zM1194.35 176h460" stroke="#666" fill="none"/><use xlink:href="#a" transform="matrix(1,0,0,1,1199.3527525538948,178.5000000000001) translate(5 18.211111111111112)"/><use xlink:href="#b" transform="matrix(1,0,0,1,1199.3527525538948,178.5000000000001) translate(9.320987654320987 18.211111111111112)"/><use xlink:href="#c" transform="matrix(1,0,0,1,1199.3527525538948,178.5000000000001) translate(18.78395061728395 18.211111111111112)"/><use xlink:href="#d" transform="matrix(1,0,0,1,1199.3527525538948,178.5000000000001) translate(61.95061728395062 18.211111111111112)"/><use xlink:href="#e" transform="matrix(1,0,0,1,1199.3527525538948,178.5000000000001) translate(70.5925925925926 18.211111111111112)"/><use xlink:href="#f" transform="matrix(1,0,0,1,1199.3527525538948,210.5000000000001) translate(5 18.211111111111112)"/><use xlink:href="#g" transform="matrix(1,0,0,1,1199.3527525538948,210.5000000000001) translate(14.462962962962964 18.211111111111112)"/><use xlink:href="#d" transform="matrix(1,0,0,1,1199.3527525538948,210.5000000000001) translate(42.93827160493827 18.211111111111112)"/><use xlink:href="#h" transform="matrix(1,0,0,1,1199.3527525538948,210.5000000000001) translate(51.58024691358025 18.211111111111112)"/><use xlink:href="#f" transform="matrix(1,0,0,1,1199.3527525538948,242.5000000000001) translate(5 18.211111111111112)"/><use xlink:href="#i" transform="matrix(1,0,0,1,1199.3527525538948,242.5000000000001) translate(14.462962962962964 18.211111111111112)"/><use xlink:href="#d" transform="matrix(1,0,0,1,1199.3527525538948,242.5000000000001) translate(36.88888888888889 18.211111111111112)"/><use xlink:href="#h" transform="matrix(1,0,0,1,1199.3527525538948,242.5000000000001) translate(45.53086419753087 18.211111111111112)"/><use xlink:href="#f" transform="matrix(1,0,0,1,1199.3527525538948,274.5000000000001) translate(5 18.211111111111112)"/><use xlink:href="#j" transform="matrix(1,0,0,1,1199.3527525538948,274.5000000000001) translate(14.462962962962964 18.211111111111112)"/><use xlink:href="#k" transform="matrix(1,0,0,1,1199.3527525538948,274.5000000000001) translate(36.067901234567906 18.211111111111112)"/><use xlink:href="#h" transform="matrix(1,0,0,1,1199.3527525538948,274.5000000000001) translate(49.030864197530875 18.211111111111112)"/><use xlink:href="#a" transform="matrix(1,0,0,1,1199.3527525538948,306.5000000000001) translate(5 18.211111111111112)"/><use xlink:href="#b" transform="matrix(1,0,0,1,1199.3527525538948,306.5000000000001) translate(9.320987654320987 18.211111111111112)"/><use xlink:href="#l" transform="matrix(1,0,0,1,1199.3527525538948,306.5000000000001) translate(18.78395061728395 18.211111111111112)"/><use xlink:href="#k" transform="matrix(1,0,0,1,1199.3527525538948,306.5000000000001) translate(74.91358024691358 18.211111111111112)"/><use xlink:href="#h" transform="matrix(1,0,0,1,1199.3527525538948,306.5000000000001) translate(87.87654320987654 18.211111111111112)"/><use xlink:href="#f" transform="matrix(1,0,0,1,1199.3527525538948,338.5000000000001) translate(5 18.211111111111112)"/><use xlink:href="#m" transform="matrix(1,0,0,1,1199.3527525538948,338.5000000000001) translate(14.462962962962964 18.211111111111112)"/><use xlink:href="#k" transform="matrix(1,0,0,1,1199.3527525538948,338.5000000000001) translate(97.38271604938272 18.211111111111112)"/><use xlink:href="#h" transform="matrix(1,0,0,1,1199.3527525538948,338.5000000000001) translate(110.34567901234568 18.211111111111112)"/><use xlink:href="#f" transform="matrix(1,0,0,1,1199.3527525538948,370.5000000000001) translate(5 18.211111111111112)"/><use xlink:href="#n" transform="matrix(1,0,0,1,1199.3527525538948,370.5000000000001) translate(14.462962962962964 18.211111111111112)"/><use xlink:href="#k" transform="matrix(1,0,0,1,1199.3527525538948,370.5000000000001) translate(49.851851851851855 18.211111111111112)"/><use xlink:href="#h" transform="matrix(1,0,0,1,1199.3527525538948,370.5000000000001) translate(62.814814814814824 18.211111111111112)"/><use xlink:href="#o" transform="matrix(1,0,0,1,1199.3527525538948,402.5000000000001) translate(5 18.211111111111112)"/><use xlink:href="#p" transform="matrix(1,0,0,1,1199.3527525538948,402.5000000000001) translate(18.395061728395063 18.211111111111112)"/><use xlink:href="#q" transform="matrix(1,0,0,1,1199.3527525538948,402.5000000000001) translate(155.58641975308643 18.211111111111112)"/><use xlink:href="#r" transform="matrix(1,0,0,1,1199.3527525538948,402.5000000000001) translate(165.0493827160494 18.211111111111112)"/><use xlink:href="#d" transform="matrix(1,0,0,1,1199.3527525538948,402.5000000000001) translate(174.51234567901236 18.211111111111112)"/><use xlink:href="#h" transform="matrix(1,0,0,1,1199.3527525538948,402.5000000000001) translate(183.15432098765433 18.211111111111112)"/><use xlink:href="#o" transform="matrix(1,0,0,1,1199.3527525538948,434.5000000000001) translate(5 18.211111111111112)"/><use xlink:href="#s" transform="matrix(1,0,0,1,1199.3527525538948,434.5000000000001) translate(18.395061728395063 18.211111111111112)"/><use xlink:href="#q" transform="matrix(1,0,0,1,1199.3527525538948,434.5000000000001) translate(182.37654320987656 18.211111111111112)"/><use xlink:href="#r" transform="matrix(1,0,0,1,1199.3527525538948,434.5000000000001) translate(191.83950617283952 18.211111111111112)"/><use xlink:href="#d" transform="matrix(1,0,0,1,1199.3527525538948,434.5000000000001) translate(201.30246913580248 18.211111111111112)"/><use xlink:href="#h" transform="matrix(1,0,0,1,1199.3527525538948,434.5000000000001) translate(209.94444444444446 18.211111111111112)"/><use xlink:href="#o" transform="matrix(1,0,0,1,1199.3527525538948,466.5000000000001) translate(5 18.211111111111112)"/><use xlink:href="#t" transform="matrix(1,0,0,1,1199.3527525538948,466.5000000000001) translate(18.395061728395063 18.211111111111112)"/><use xlink:href="#q" transform="matrix(1,0,0,1,1199.3527525538948,466.5000000000001) translate(132.25308641975312 18.211111111111112)"/><use xlink:href="#u" transform="matrix(1,0,0,1,1199.3527525538948,466.5000000000001) translate(141.71604938271608 18.211111111111112)"/><use xlink:href="#h" transform="matrix(1,0,0,1,1199.3527525538948,466.5000000000001) translate(155.50000000000003 18.211111111111112)"/><use xlink:href="#o" transform="matrix(1,0,0,1,1199.3527525538948,498.5000000000001) translate(5 18.211111111111112)"/><use xlink:href="#v" transform="matrix(1,0,0,1,1199.3527525538948,498.5000000000001) translate(18.395061728395063 18.211111111111112)"/><use xlink:href="#q" transform="matrix(1,0,0,1,1199.3527525538948,498.5000000000001) translate(126.20370370370372 18.211111111111112)"/><use xlink:href="#r" transform="matrix(1,0,0,1,1199.3527525538948,498.5000000000001) translate(135.66666666666669 18.211111111111112)"/><use xlink:href="#d" transform="matrix(1,0,0,1,1199.3527525538948,498.5000000000001) translate(145.12962962962965 18.211111111111112)"/><use xlink:href="#h" transform="matrix(1,0,0,1,1199.3527525538948,498.5000000000001) translate(153.77160493827162 18.211111111111112)"/><use xlink:href="#o" transform="matrix(1,0,0,1,1199.3527525538948,530.5000000000001) translate(5 18.211111111111112)"/><use xlink:href="#w" transform="matrix(1,0,0,1,1199.3527525538948,530.5000000000001) translate(18.395061728395063 18.211111111111112)"/><use xlink:href="#r" transform="matrix(1,0,0,1,1199.3527525538948,530.5000000000001) translate(130.5246913580247 18.211111111111112)"/><use xlink:href="#k" transform="matrix(1,0,0,1,1199.3527525538948,530.5000000000001) translate(139.98765432098767 18.211111111111112)"/><use xlink:href="#h" transform="matrix(1,0,0,1,1199.3527525538948,530.5000000000001) translate(152.95061728395063 18.211111111111112)"/><use xlink:href="#x" transform="matrix(1,0,0,1,1199.3527525538948,562.5000000000001) translate(0 17.1)"/><path d="M1194.35 136h459.93v40h-459.93z" stroke="#666" fill="#ffb781"/><use xlink:href="#y" transform="matrix(1,0,0,1,1199.1527525538947,140.80000000000013) translate(0 20.211111111111112)"/><use xlink:href="#z" transform="matrix(1,0,0,1,1199.1527525538947,140.80000000000013) translate(155.55555555555557 20.211111111111112)"/><path d="M2056 772h200v110h-200z" fill="#fff"/><path d="M2056 847h200v35h-200z" fill="#e6e6e6"/><path d="M2056 772h200v40h-200z" fill="#ccc"/><path d="M2056 772h200v110h-200zM2056 812h200" stroke="#666" fill="none"/><use xlink:href="#A" transform="matrix(1,0,0,1,2061,814.5000000000003) translate(5 20.155555555555555)"/><use xlink:href="#B" transform="matrix(1,0,0,1,2061,814.5000000000003) translate(20.308641975308646 20.155555555555555)"/><use xlink:href="#C" transform="matrix(1,0,0,1,2061,814.5000000000003) translate(63.66666666666668 20.155555555555555)"/><use xlink:href="#D" transform="matrix(1,0,0,1,2061,814.5000000000003) translate(74.4814814814815 20.155555555555555)"/><use xlink:href="#E" transform="matrix(1,0,0,1,2061,814.5000000000003) translate(85.2962962962963 20.155555555555555)"/><use xlink:href="#F" transform="matrix(1,0,0,1,2061,814.5000000000003) translate(95.17283950617285 20.155555555555555)"/><path d="M2056 772h200v40h-200z" stroke="#666" fill="#ffeadb"/><use xlink:href="#G" transform="matrix(1,0,0,1,2060.8,776.8000000000002) translate(0 20.655555555555555)"/><use xlink:href="#H" transform="matrix(1,0,0,1,2060.8,776.8000000000002) translate(74.0740740740741 20.655555555555555)"/><path d="M1324.32 772h200v110h-200z" fill="#fff"/><path d="M1324.32 847h200v35h-200z" fill="#e6e6e6"/><path d="M1324.32 772h200v40h-200z" fill="#ccc"/><path d="M1324.32 772h200v110h-200zM1324.32 812h200" stroke="#666" fill="none"/><use xlink:href="#A" transform="matrix(1,0,0,1,1329.315016704838,814.5000000000002) translate(5 20.155555555555555)"/><use xlink:href="#B" transform="matrix(1,0,0,1,1329.315016704838,814.5000000000002) translate(20.308641975308646 20.155555555555555)"/><use xlink:href="#C" transform="matrix(1,0,0,1,1329.315016704838,814.5000000000002) translate(63.66666666666668 20.155555555555555)"/><use xlink:href="#D" transform="matrix(1,0,0,1,1329.315016704838,814.5000000000002) translate(74.4814814814815 20.155555555555555)"/><use xlink:href="#E" transform="matrix(1,0,0,1,1329.315016704838,814.5000000000002) translate(85.2962962962963 20.155555555555555)"/><use xlink:href="#F" transform="matrix(1,0,0,1,1329.315016704838,814.5000000000002) translate(95.17283950617285 20.155555555555555)"/><path d="M1324.32 772h200v40h-200z" stroke="#666" fill="#ffeadb"/><use xlink:href="#I" transform="matrix(1,0,0,1,1329.115016704838,776.8000000000001) translate(0 20.655555555555555)"/><use xlink:href="#J" transform="matrix(1,0,0,1,1329.115016704838,776.8000000000001) translate(79.01234567901238 20.655555555555555)"/><path d="M696 772h200v110H696z" fill="#fff"/><path d="M696 847h200v35H696z" fill="#e6e6e6"/><path d="M696 772h200v40H696z" fill="#ccc"/><path d="M696 772h200v110H696zM696 812h200" stroke="#666" fill="none"/><use xlink:href="#A" transform="matrix(1,0,0,1,701.0000000000001,814.5000000000005) translate(5 20.155555555555555)"/><use xlink:href="#B" transform="matrix(1,0,0,1,701.0000000000001,814.5000000000005) translate(20.308641975308646 20.155555555555555)"/><use xlink:href="#C" transform="matrix(1,0,0,1,701.0000000000001,814.5000000000005) translate(63.66666666666668 20.155555555555555)"/><use xlink:href="#D" transform="matrix(1,0,0,1,701.0000000000001,814.5000000000005) translate(74.4814814814815 20.155555555555555)"/><use xlink:href="#E" transform="matrix(1,0,0,1,701.0000000000001,814.5000000000005) translate(85.2962962962963 20.155555555555555)"/><use xlink:href="#F" transform="matrix(1,0,0,1,701.0000000000001,814.5000000000005) translate(95.17283950617285 20.155555555555555)"/><path d="M696 772h200v40H696z" stroke="#666" fill="#ffeadb"/><g><use xlink:href="#K" transform="matrix(1,0,0,1,700.8000000000001,776.8000000000003) translate(0 20.655555555555555)"/><use xlink:href="#L" transform="matrix(1,0,0,1,700.8000000000001,776.8000000000003) translate(83.95061728395066 20.655555555555555)"/></g><path d="M100 772h200v110H100z" fill="#fff"/><path d="M100 847h200v35H100z" fill="#e6e6e6"/><path d="M100 772h200v40H100z" fill="#ccc"/><path d="M100 772h200v110H100zM100 812h200" stroke="#666" fill="none"/><g><use xlink:href="#A" transform="matrix(1,0,0,1,105,814.5000000000007) translate(5 20.155555555555555)"/><use xlink:href="#B" transform="matrix(1,0,0,1,105,814.5000000000007) translate(20.308641975308646 20.155555555555555)"/><use xlink:href="#C" transform="matrix(1,0,0,1,105,814.5000000000007) translate(63.66666666666668 20.155555555555555)"/><use xlink:href="#D" transform="matrix(1,0,0,1,105,814.5000000000007) translate(74.4814814814815 20.155555555555555)"/><use xlink:href="#E" transform="matrix(1,0,0,1,105,814.5000000000007) translate(85.2962962962963 20.155555555555555)"/><use xlink:href="#F" transform="matrix(1,0,0,1,105,814.5000000000007) translate(95.17283950617285 20.155555555555555)"/></g><path d="M100 772h200v40H100z" stroke="#666" fill="#ffeadb"/><g><use xlink:href="#M" transform="matrix(1,0,0,1,104.8,776.8000000000005) translate(0 20.655555555555555)"/><use xlink:href="#N" transform="matrix(1,0,0,1,104.8,776.8000000000005) translate(59.25925925925927 20.655555555555555)"/></g><path d="M2656 772h200v110h-200z" fill="#fff"/><path d="M2656 847h200v35h-200z" fill="#e6e6e6"/><path d="M2656 772h200v40h-200z" fill="#ccc"/><path d="M2656 772h200v110h-200zM2656 812h200" stroke="#666" fill="none"/><g><use xlink:href="#A" transform="matrix(1,0,0,1,2661,814.5000000000006) translate(5 20.155555555555555)"/><use xlink:href="#B" transform="matrix(1,0,0,1,2661,814.5000000000006) translate(20.308641975308646 20.155555555555555)"/><use xlink:href="#C" transform="matrix(1,0,0,1,2661,814.5000000000006) translate(63.66666666666668 20.155555555555555)"/><use xlink:href="#D" transform="matrix(1,0,0,1,2661,814.5000000000006) translate(74.4814814814815 20.155555555555555)"/><use xlink:href="#E" transform="matrix(1,0,0,1,2661,814.5000000000006) translate(85.2962962962963 20.155555555555555)"/><use xlink:href="#F" transform="matrix(1,0,0,1,2661,814.5000000000006) translate(95.17283950617285 20.155555555555555)"/></g><path d="M2656 772h200v40h-200z" stroke="#666" fill="#ffeadb"/><g><use xlink:href="#G" transform="matrix(1,0,0,1,2660.8,776.8000000000004) translate(0 20.655555555555555)"/><use xlink:href="#O" transform="matrix(1,0,0,1,2660.8,776.8000000000004) translate(74.0740740740741 20.655555555555555)"/></g><path d="M980 1400h323.45v288H980z" fill="#fff"/><path d="M980 1477h323.45v32H980zM980 1560h323.45v32H980zM980 1624h323.45v32H980z" fill="#e6e6e6"/><path d="M980 1400h323.45v45H980z" fill="#ccc"/><path d="M980 1400h323.45v288H980zM980 1445h323.45" stroke="#666" fill="none"/><g><use xlink:href="#P" transform="matrix(1,0,0,1,990,1400) translate(5 29.388888888888893)"/><use xlink:href="#Q" transform="matrix(1,0,0,1,990,1400) translate(71.11111111111114 29.388888888888893)"/></g><g><use xlink:href="#a" transform="matrix(1,0,0,1,985,1447.5) translate(5 18.211111111111112)"/><use xlink:href="#R" transform="matrix(1,0,0,1,985,1447.5) translate(9.320987654320987 18.211111111111112)"/><use xlink:href="#S" transform="matrix(1,0,0,1,985,1447.5) translate(22.71604938271605 18.211111111111112)"/><use xlink:href="#q" transform="matrix(1,0,0,1,985,1447.5) translate(93.49382716049384 18.211111111111112)"/><use xlink:href="#r" transform="matrix(1,0,0,1,985,1447.5) translate(102.9567901234568 18.211111111111112)"/><use xlink:href="#d" transform="matrix(1,0,0,1,985,1447.5) translate(112.41975308641976 18.211111111111112)"/><use xlink:href="#T" transform="matrix(1,0,0,1,985,1447.5) translate(121.06172839506173 18.211111111111112)"/></g><g><use xlink:href="#a" transform="matrix(1,0,0,1,985,1479.5) translate(5 18.211111111111112)"/><use xlink:href="#R" transform="matrix(1,0,0,1,985,1479.5) translate(9.320987654320987 18.211111111111112)"/><use xlink:href="#U" transform="matrix(1,0,0,1,985,1479.5) translate(22.71604938271605 18.211111111111112)"/><use xlink:href="#q" transform="matrix(1,0,0,1,985,1479.5) translate(72.70987654320987 18.211111111111112)"/><use xlink:href="#r" transform="matrix(1,0,0,1,985,1479.5) translate(82.17283950617283 18.211111111111112)"/><use xlink:href="#d" transform="matrix(1,0,0,1,985,1479.5) translate(91.6358024691358 18.211111111111112)"/><use xlink:href="#V" transform="matrix(1,0,0,1,985,1479.5) translate(100.27777777777777 18.211111111111112)"/></g><g><use xlink:href="#a" transform="matrix(1,0,0,1,985,1511.5) translate(5 27.711111111111112)"/><use xlink:href="#R" transform="matrix(1,0,0,1,985,1511.5) translate(9.320987654320987 27.711111111111112)"/><use xlink:href="#W" transform="matrix(1,0,0,1,985,1511.5) translate(22.71604938271605 27.711111111111112)"/><use xlink:href="#q" transform="matrix(1,0,0,1,985,1511.5) translate(122.74691358024693 27.711111111111112)"/><use xlink:href="#r" transform="matrix(1,0,0,1,985,1511.5) translate(132.2098765432099 27.711111111111112)"/><use xlink:href="#d" transform="matrix(1,0,0,1,985,1511.5) translate(141.67283950617286 27.711111111111112)"/><use xlink:href="#T" transform="matrix(1,0,0,1,985,1511.5) translate(150.31481481481484 27.711111111111112)"/></g><g><use xlink:href="#a" transform="matrix(1,0,0,1,985,1562.5) translate(5 18.211111111111112)"/><use xlink:href="#R" transform="matrix(1,0,0,1,985,1562.5) translate(9.320987654320987 18.211111111111112)"/><use xlink:href="#X" transform="matrix(1,0,0,1,985,1562.5) translate(22.71604938271605 18.211111111111112)"/><use xlink:href="#q" transform="matrix(1,0,0,1,985,1562.5) translate(115.09876543209876 18.211111111111112)"/><use xlink:href="#r" transform="matrix(1,0,0,1,985,1562.5) translate(124.56172839506172 18.211111111111112)"/><use xlink:href="#d" transform="matrix(1,0,0,1,985,1562.5) translate(134.02469135802468 18.211111111111112)"/><use xlink:href="#T" transform="matrix(1,0,0,1,985,1562.5) translate(142.66666666666666 18.211111111111112)"/></g><g><use xlink:href="#o" transform="matrix(1,0,0,1,985,1594.5) translate(5 18.211111111111112)"/><use xlink:href="#Y" transform="matrix(1,0,0,1,985,1594.5) translate(18.395061728395063 18.211111111111112)"/><use xlink:href="#q" transform="matrix(1,0,0,1,985,1594.5) translate(135.7530864197531 18.211111111111112)"/><use xlink:href="#r" transform="matrix(1,0,0,1,985,1594.5) translate(145.21604938271605 18.211111111111112)"/><use xlink:href="#d" transform="matrix(1,0,0,1,985,1594.5) translate(154.679012345679 18.211111111111112)"/><use xlink:href="#Z" transform="matrix(1,0,0,1,985,1594.5) translate(163.320987654321 18.211111111111112)"/></g><g><use xlink:href="#o" transform="matrix(1,0,0,1,985,1626.5) translate(5 18.211111111111112)"/><use xlink:href="#aa" transform="matrix(1,0,0,1,985,1626.5) translate(18.395061728395063 18.211111111111112)"/><use xlink:href="#q" transform="matrix(1,0,0,1,985,1626.5) translate(111.59876543209877 18.211111111111112)"/><use xlink:href="#r" transform="matrix(1,0,0,1,985,1626.5) translate(121.06172839506173 18.211111111111112)"/><use xlink:href="#d" transform="matrix(1,0,0,1,985,1626.5) translate(130.5246913580247 18.211111111111112)"/><use xlink:href="#Z" transform="matrix(1,0,0,1,985,1626.5) translate(139.16666666666669 18.211111111111112)"/></g><g><use xlink:href="#o" transform="matrix(1,0,0,1,985,1658.5) translate(5 18.211111111111112)"/><use xlink:href="#ab" transform="matrix(1,0,0,1,985,1658.5) translate(18.395061728395063 18.211111111111112)"/><use xlink:href="#q" transform="matrix(1,0,0,1,985,1658.5) translate(154.72222222222223 18.211111111111112)"/><use xlink:href="#r" transform="matrix(1,0,0,1,985,1658.5) translate(164.1851851851852 18.211111111111112)"/><use xlink:href="#d" transform="matrix(1,0,0,1,985,1658.5) translate(173.64814814814815 18.211111111111112)"/><use xlink:href="#Z" transform="matrix(1,0,0,1,985,1658.5) translate(182.29012345679013 18.211111111111112)"/></g><path d="M2340 1380h323.45v333H2340z" fill="#fff"/><path d="M2340 1457h323.45v32H2340zM2340 1521h323.45v32H2340zM2340 1585h323.45v32H2340zM2340 1649h323.45v32H2340z" fill="#e6e6e6"/><path d="M2340 1380h323.45v45H2340z" fill="#ccc"/><path d="M2340 1380h323.45v333H2340zM2340 1425h323.45" stroke="#666" fill="none"/><g><use xlink:href="#ac" transform="matrix(1,0,0,1,2350,1380) translate(5 29.388888888888893)"/><use xlink:href="#ad" transform="matrix(1,0,0,1,2350,1380) translate(115.18518518518525 29.388888888888893)"/></g><g><use xlink:href="#a" transform="matrix(1,0,0,1,2345,1427.5) translate(5 18.211111111111112)"/><use xlink:href="#b" transform="matrix(1,0,0,1,2345,1427.5) translate(9.320987654320987 18.211111111111112)"/><use xlink:href="#c" transform="matrix(1,0,0,1,2345,1427.5) translate(18.78395061728395 18.211111111111112)"/><use xlink:href="#d" transform="matrix(1,0,0,1,2345,1427.5) translate(61.95061728395062 18.211111111111112)"/><use xlink:href="#e" transform="matrix(1,0,0,1,2345,1427.5) translate(70.5925925925926 18.211111111111112)"/></g><g><use xlink:href="#a" transform="matrix(1,0,0,1,2345,1459.5) translate(5 18.211111111111112)"/><use xlink:href="#b" transform="matrix(1,0,0,1,2345,1459.5) translate(9.320987654320987 18.211111111111112)"/><use xlink:href="#ae" transform="matrix(1,0,0,1,2345,1459.5) translate(18.78395061728395 18.211111111111112)"/><use xlink:href="#d" transform="matrix(1,0,0,1,2345,1459.5) translate(91.50617283950618 18.211111111111112)"/><use xlink:href="#af" transform="matrix(1,0,0,1,2345,1459.5) translate(100.14814814814815 18.211111111111112)"/></g><g><use xlink:href="#a" transform="matrix(1,0,0,1,2345,1491.5) translate(5 18.211111111111112)"/><use xlink:href="#b" transform="matrix(1,0,0,1,2345,1491.5) translate(9.320987654320987 18.211111111111112)"/><use xlink:href="#ag" transform="matrix(1,0,0,1,2345,1491.5) translate(18.78395061728395 18.211111111111112)"/><use xlink:href="#d" transform="matrix(1,0,0,1,2345,1491.5) translate(99.15432098765433 18.211111111111112)"/><use xlink:href="#af" transform="matrix(1,0,0,1,2345,1491.5) translate(107.7962962962963 18.211111111111112)"/></g><g><use xlink:href="#a" transform="matrix(1,0,0,1,2345,1523.5) translate(5 18.211111111111112)"/><use xlink:href="#b" transform="matrix(1,0,0,1,2345,1523.5) translate(9.320987654320987 18.211111111111112)"/><use xlink:href="#ah" transform="matrix(1,0,0,1,2345,1523.5) translate(18.78395061728395 18.211111111111112)"/><use xlink:href="#d" transform="matrix(1,0,0,1,2345,1523.5) translate(87.18518518518519 18.211111111111112)"/><use xlink:href="#af" transform="matrix(1,0,0,1,2345,1523.5) translate(95.82716049382717 18.211111111111112)"/></g><g><use xlink:href="#a" transform="matrix(1,0,0,1,2345,1555.5) translate(5 18.211111111111112)"/><use xlink:href="#b" transform="matrix(1,0,0,1,2345,1555.5) translate(9.320987654320987 18.211111111111112)"/><use xlink:href="#ai" transform="matrix(1,0,0,1,2345,1555.5) translate(18.78395061728395 18.211111111111112)"/><use xlink:href="#d" transform="matrix(1,0,0,1,2345,1555.5) translate(82.90740740740742 18.211111111111112)"/><use xlink:href="#af" transform="matrix(1,0,0,1,2345,1555.5) translate(91.5493827160494 18.211111111111112)"/></g><g><use xlink:href="#a" transform="matrix(1,0,0,1,2345,1587.5) translate(5 18.211111111111112)"/><use xlink:href="#b" transform="matrix(1,0,0,1,2345,1587.5) translate(9.320987654320987 18.211111111111112)"/><use xlink:href="#aj" transform="matrix(1,0,0,1,2345,1587.5) translate(18.78395061728395 18.211111111111112)"/><use xlink:href="#d" transform="matrix(1,0,0,1,2345,1587.5) translate(87.01234567901236 18.211111111111112)"/><use xlink:href="#af" transform="matrix(1,0,0,1,2345,1587.5) translate(95.65432098765433 18.211111111111112)"/></g><g><use xlink:href="#a" transform="matrix(1,0,0,1,2345,1619.5) translate(5 18.211111111111112)"/><use xlink:href="#b" transform="matrix(1,0,0,1,2345,1619.5) translate(9.320987654320987 18.211111111111112)"/><use xlink:href="#ak" transform="matrix(1,0,0,1,2345,1619.5) translate(18.78395061728395 18.211111111111112)"/><use xlink:href="#d" transform="matrix(1,0,0,1,2345,1619.5) translate(104.38271604938272 18.211111111111112)"/><use xlink:href="#af" transform="matrix(1,0,0,1,2345,1619.5) translate(113.0246913580247 18.211111111111112)"/></g><g><use xlink:href="#f" transform="matrix(1,0,0,1,2345,1651.5) translate(5 18.211111111111112)"/><use xlink:href="#al" transform="matrix(1,0,0,1,2345,1651.5) translate(14.462962962962964 18.211111111111112)"/><use xlink:href="#d" transform="matrix(1,0,0,1,2345,1651.5) translate(48.123456790123456 18.211111111111112)"/><use xlink:href="#am" transform="matrix(1,0,0,1,2345,1651.5) translate(56.76543209876543 18.211111111111112)"/></g><g><use xlink:href="#f" transform="matrix(1,0,0,1,2345,1683.5) translate(5 18.211111111111112)"/><use xlink:href="#an" transform="matrix(1,0,0,1,2345,1683.5) translate(14.462962962962964 18.211111111111112)"/><use xlink:href="#d" transform="matrix(1,0,0,1,2345,1683.5) translate(64.58641975308642 18.211111111111112)"/><use xlink:href="#e" transform="matrix(1,0,0,1,2345,1683.5) translate(73.22839506172839 18.211111111111112)"/></g><path d="M2756 770v-37.5c0-.55-.45-1-1-1H201c-.55 0-1 .45-1 1V770" stroke="#666" stroke-width="3" fill="none"/><path d="M2757.5 771.5h-3v-1.54h3zM201.5 771.5h-3v-1.54h3z" fill="#666"/><path d="M2156.02 770l.57-37" stroke="#666" stroke-width="3" fill="none"/><path d="M2157.52 769.98l-.02 1.52h-3l.02-1.56z" fill="#666"/><path d="M2156.6 733.04v-1.54M1424.32 770V613.12" stroke="#666" stroke-width="3" fill="none"/><path d="M1425.82 771.5h-3v-1.54h3z" fill="#666"/><path d="M1424.32 597.35l4.63 14.27h-9.27z" stroke="#666" stroke-width="3" fill="#666"/><path d="M796 770l.36-37" stroke="#666" stroke-width="3" fill="none"/><path d="M797.5 769.98v1.52h-3v-1.55z" fill="#666"/><path d="M796.36 733.04v-1.54" stroke="#666" stroke-width="3" fill="none"/><defs><path fill="#666" d="M16-82v-28h88v28H16" id="ao"/><use transform="matrix(0.04320987654320988,0,0,0.04320987654320988,0,0)" xlink:href="#ao" id="b"/><path fill="#666" d="M117-194c89-4 53 116 60 194h-32v-121c0-31-8-49-39-48C34-167 62-67 57 0H25l-1-190h30c1 10-1 24 2 32 11-22 29-35 61-36" id="ap"/><path fill="#666" d="M141-36C126-15 110 5 73 4 37 3 15-17 15-53c-1-64 63-63 125-63 3-35-9-54-41-54-24 1-41 7-42 31l-33-3c5-37 33-52 76-52 45 0 72 20 72 64v82c-1 20 7 32 28 27v20c-31 9-61-2-59-35zM48-53c0 20 12 33 32 33 41-3 63-29 60-74-43 2-92-5-92 41" id="aq"/><path fill="#666" d="M210-169c-67 3-38 105-44 169h-31v-121c0-29-5-50-35-48C34-165 62-65 56 0H25l-1-190h30c1 10-1 24 2 32 10-44 99-50 107 0 11-21 27-35 58-36 85-2 47 119 55 194h-31v-121c0-29-5-49-35-48" id="ar"/><path fill="#666" d="M100-194c63 0 86 42 84 106H49c0 40 14 67 53 68 26 1 43-12 49-29l28 8c-11 28-37 45-77 45C44 4 14-33 15-96c1-61 26-98 85-98zm52 81c6-60-76-77-97-28-3 7-6 17-6 28h103" id="as"/><g id="c"><use transform="matrix(0.04320987654320988,0,0,0.04320987654320988,0,0)" xlink:href="#ap"/><use transform="matrix(0.04320987654320988,0,0,0.04320987654320988,8.641975308641976,0)" xlink:href="#aq"/><use transform="matrix(0.04320987654320988,0,0,0.04320987654320988,17.283950617283953,0)" xlink:href="#ar"/><use transform="matrix(0.04320987654320988,0,0,0.04320987654320988,30.203703703703713,0)" xlink:href="#as"/></g><path fill="#666" d="M33-154v-36h34v36H33zM33 0v-36h34V0H33" id="at"/><use transform="matrix(0.04320987654320988,0,0,0.04320987654320988,0,0)" xlink:href="#at" id="d"/><path fill="#666" d="M185-189c-5-48-123-54-124 2 14 75 158 14 163 119 3 78-121 87-175 55-17-10-28-26-33-46l33-7c5 56 141 63 141-1 0-78-155-14-162-118-5-82 145-84 179-34 5 7 8 16 11 25" id="au"/><path fill="#666" d="M59-47c-2 24 18 29 38 22v24C64 9 27 4 27-40v-127H5v-23h24l9-43h21v43h35v23H59v120" id="av"/><path fill="#666" d="M114-163C36-179 61-72 57 0H25l-1-190h30c1 12-1 29 2 39 6-27 23-49 58-41v29" id="aw"/><path fill="#666" d="M24-231v-30h32v30H24zM24 0v-190h32V0H24" id="ax"/><path fill="#666" d="M177-190C167-65 218 103 67 71c-23-6-38-20-44-43l32-5c15 47 100 32 89-28v-30C133-14 115 1 83 1 29 1 15-40 15-95c0-56 16-97 71-98 29-1 48 16 59 35 1-10 0-23 2-32h30zM94-22c36 0 50-32 50-73 0-42-14-75-50-75-39 0-46 34-46 75s6 73 46 73" id="ay"/><g id="e"><use transform="matrix(0.04320987654320988,0,0,0.04320987654320988,0,0)" xlink:href="#au"/><use transform="matrix(0.04320987654320988,0,0,0.04320987654320988,10.370370370370372,0)" xlink:href="#av"/><use transform="matrix(0.04320987654320988,0,0,0.04320987654320988,14.691358024691363,0)" xlink:href="#aw"/><use transform="matrix(0.04320987654320988,0,0,0.04320987654320988,19.833333333333336,0)" xlink:href="#ax"/><use transform="matrix(0.04320987654320988,0,0,0.04320987654320988,23.246913580246915,0)" xlink:href="#ap"/><use transform="matrix(0.04320987654320988,0,0,0.04320987654320988,31.888888888888893,0)" xlink:href="#ay"/></g><use transform="matrix(0.04320987654320988,0,0,0.04320987654320988,0,0)" xlink:href="#ao" id="f"/><path fill="#666" d="M206 0h-36l-40-164L89 0H53L-1-190h32L70-26l43-164h34l41 164 42-164h31" id="az"/><g id="g"><use transform="matrix(0.04320987654320988,0,0,0.04320987654320988,0,0)" xlink:href="#aq"/><use transform="matrix(0.04320987654320988,0,0,0.04320987654320988,8.641975308641976,0)" xlink:href="#az"/><use transform="matrix(0.04320987654320988,0,0,0.04320987654320988,19.833333333333336,0)" xlink:href="#av"/></g><path fill="#666" d="M101-234c-31-9-42 10-38 44h38v23H63V0H32v-167H5v-23h27c-7-52 17-82 69-68v24" id="aA"/><path fill="#666" d="M24 0v-261h32V0H24" id="aB"/><path fill="#666" d="M100-194c62-1 85 37 85 99 1 63-27 99-86 99S16-35 15-95c0-66 28-99 85-99zM99-20c44 1 53-31 53-75 0-43-8-75-51-75s-53 32-53 75 10 74 51 75" id="aC"/><g id="h"><use transform="matrix(0.04320987654320988,0,0,0.04320987654320988,0,0)" xlink:href="#aA"/><use transform="matrix(0.04320987654320988,0,0,0.04320987654320988,4.320987654320988,0)" xlink:href="#aB"/><use transform="matrix(0.04320987654320988,0,0,0.04320987654320988,7.734567901234569,0)" xlink:href="#aC"/><use transform="matrix(0.04320987654320988,0,0,0.04320987654320988,16.376543209876544,0)" xlink:href="#aq"/><use transform="matrix(0.04320987654320988,0,0,0.04320987654320988,25.018518518518523,0)" xlink:href="#av"/></g><g id="i"><use transform="matrix(0.04320987654320988,0,0,0.04320987654320988,0,0)" xlink:href="#aq"/><use transform="matrix(0.04320987654320988,0,0,0.04320987654320988,8.641975308641976,0)" xlink:href="#aw"/><use transform="matrix(0.04320987654320988,0,0,0.04320987654320988,13.783950617283953,0)" xlink:href="#av"/></g><g id="j"><use transform="matrix(0.04320987654320988,0,0,0.04320987654320988,0,0)" xlink:href="#aq"/><use transform="matrix(0.04320987654320988,0,0,0.04320987654320988,8.641975308641976,0)" xlink:href="#av"/><use transform="matrix(0.04320987654320988,0,0,0.04320987654320988,12.962962962962964,0)" xlink:href="#av"/></g><use transform="matrix(0.04320987654320988,0,0,0.04320987654320988,0,0)" xlink:href="#at" id="k"/><path fill="#666" d="M84 4C-5 8 30-112 23-190h32v120c0 31 7 50 39 49 72-2 45-101 50-169h31l1 190h-30c-1-10 1-25-2-33-11 22-28 36-60 37" id="aD"/><path fill="#666" d="M96-169c-40 0-48 33-48 73s9 75 48 75c24 0 41-14 43-38l32 2c-6 37-31 61-74 61-59 0-76-41-82-99-10-93 101-131 147-64 4 7 5 14 7 22l-32 3c-4-21-16-35-41-35" id="aE"/><g id="l"><use transform="matrix(0.04320987654320988,0,0,0.04320987654320988,0,0)" xlink:href="#aD"/><use transform="matrix(0.04320987654320988,0,0,0.04320987654320988,8.641975308641976,0)" xlink:href="#aA"/><use transform="matrix(0.04320987654320988,0,0,0.04320987654320988,12.962962962962964,0)" xlink:href="#aq"/><use transform="matrix(0.04320987654320988,0,0,0.04320987654320988,21.604938271604944,0)" xlink:href="#aE"/><use transform="matrix(0.04320987654320988,0,0,0.04320987654320988,29.382716049382726,0)" xlink:href="#av"/><use transform="matrix(0.04320987654320988,0,0,0.04320987654320988,33.70370370370371,0)" xlink:href="#aC"/><use transform="matrix(0.04320987654320988,0,0,0.04320987654320988,42.345679012345684,0)" xlink:href="#aw"/></g><path fill="#666" d="M106-169C34-169 62-67 57 0H25v-261h32l-1 103c12-21 28-36 61-36 89 0 53 116 60 194h-32v-121c2-32-8-49-39-48" id="aF"/><path fill="#666" d="M115-194c55 1 70 41 70 98S169 2 115 4C84 4 66-9 55-30l1 105H24l-1-265h31l2 30c10-21 28-34 59-34zm-8 174c40 0 45-34 45-75s-6-73-45-74c-42 0-51 32-51 76 0 43 10 73 51 73" id="aG"/><g id="m"><use transform="matrix(0.04320987654320988,0,0,0.04320987654320988,0,0)" xlink:href="#av"/><use transform="matrix(0.04320987654320988,0,0,0.04320987654320988,4.320987654320988,0)" xlink:href="#aF"/><use transform="matrix(0.04320987654320988,0,0,0.04320987654320988,12.962962962962964,0)" xlink:href="#aw"/><use transform="matrix(0.04320987654320988,0,0,0.04320987654320988,18.10493827160494,0)" xlink:href="#aC"/><use transform="matrix(0.04320987654320988,0,0,0.04320987654320988,26.746913580246915,0)" xlink:href="#aD"/><use transform="matrix(0.04320987654320988,0,0,0.04320987654320988,35.38888888888889,0)" xlink:href="#ay"/><use transform="matrix(0.04320987654320988,0,0,0.04320987654320988,44.03086419753087,0)" xlink:href="#aF"/><use transform="matrix(0.04320987654320988,0,0,0.04320987654320988,52.67283950617284,0)" xlink:href="#aG"/><use transform="matrix(0.04320987654320988,0,0,0.04320987654320988,61.314814814814824,0)" xlink:href="#aD"/><use transform="matrix(0.04320987654320988,0,0,0.04320987654320988,69.9567901234568,0)" xlink:href="#av"/></g><g id="n"><use transform="matrix(0.04320987654320988,0,0,0.04320987654320988,0,0)" xlink:href="#aG"/><use transform="matrix(0.04320987654320988,0,0,0.04320987654320988,8.641975308641976,0)" xlink:href="#aw"/><use transform="matrix(0.04320987654320988,0,0,0.04320987654320988,13.783950617283953,0)" xlink:href="#aC"/><use transform="matrix(0.04320987654320988,0,0,0.04320987654320988,22.425925925925934,0)" xlink:href="#aG"/></g><path fill="#666" d="M118-107v75H92v-75H18v-26h74v-75h26v75h74v26h-74" id="aH"/><use transform="matrix(0.04320987654320988,0,0,0.04320987654320988,0,0)" xlink:href="#aH" id="o"/><path fill="#666" d="M-5 72V49h209v23H-5" id="aI"/><path fill="#666" d="M212-179c-10-28-35-45-73-45-59 0-87 40-87 99 0 60 29 101 89 101 43 0 62-24 78-52l27 14C228-24 195 4 139 4 59 4 22-46 18-125c-6-104 99-153 187-111 19 9 31 26 39 46" id="aJ"/><g id="p"><use transform="matrix(0.04320987654320988,0,0,0.04320987654320988,0,0)" xlink:href="#aD"/><use transform="matrix(0.04320987654320988,0,0,0.04320987654320988,8.641975308641976,0)" xlink:href="#aA"/><use transform="matrix(0.04320987654320988,0,0,0.04320987654320988,12.962962962962964,0)" xlink:href="#aq"/><use transform="matrix(0.04320987654320988,0,0,0.04320987654320988,21.604938271604944,0)" xlink:href="#aE"/><use transform="matrix(0.04320987654320988,0,0,0.04320987654320988,29.382716049382726,0)" xlink:href="#av"/><use transform="matrix(0.04320987654320988,0,0,0.04320987654320988,33.70370370370371,0)" xlink:href="#aC"/><use transform="matrix(0.04320987654320988,0,0,0.04320987654320988,42.345679012345684,0)" xlink:href="#aw"/><use transform="matrix(0.04320987654320988,0,0,0.04320987654320988,47.48765432098766,0)" xlink:href="#aI"/><use transform="matrix(0.04320987654320988,0,0,0.04320987654320988,56.12962962962963,0)" xlink:href="#aJ"/><use transform="matrix(0.04320987654320988,0,0,0.04320987654320988,67.32098765432099,0)" xlink:href="#aq"/><use transform="matrix(0.04320987654320988,0,0,0.04320987654320988,75.96296296296296,0)" xlink:href="#aB"/><use transform="matrix(0.04320987654320988,0,0,0.04320987654320988,79.37654320987654,0)" xlink:href="#aE"/><use transform="matrix(0.04320987654320988,0,0,0.04320987654320988,87.15432098765433,0)" xlink:href="#aD"/><use transform="matrix(0.04320987654320988,0,0,0.04320987654320988,95.7962962962963,0)" xlink:href="#aB"/><use transform="matrix(0.04320987654320988,0,0,0.04320987654320988,99.20987654320989,0)" xlink:href="#aq"/><use transform="matrix(0.04320987654320988,0,0,0.04320987654320988,107.85185185185186,0)" xlink:href="#av"/><use transform="matrix(0.04320987654320988,0,0,0.04320987654320988,112.17283950617285,0)" xlink:href="#ax"/><use transform="matrix(0.04320987654320988,0,0,0.04320987654320988,115.58641975308643,0)" xlink:href="#aC"/><use transform="matrix(0.04320987654320988,0,0,0.04320987654320988,124.2283950617284,0)" xlink:href="#ap"/></g><path fill="#666" d="M87 75C49 33 22-17 22-94c0-76 28-126 65-167h31c-38 41-64 92-64 168S80 34 118 75H87" id="aK"/><use transform="matrix(0.04320987654320988,0,0,0.04320987654320988,0,0)" xlink:href="#aK" id="q"/><path fill="#666" d="M33-261c38 41 65 92 65 168S71 34 33 75H2C39 34 66-17 66-93S39-220 2-261h31" id="aL"/><use transform="matrix(0.04320987654320988,0,0,0.04320987654320988,0,0)" xlink:href="#aL" id="r"/><g id="s"><use transform="matrix(0.04320987654320988,0,0,0.04320987654320988,0,0)" xlink:href="#av"/><use transform="matrix(0.04320987654320988,0,0,0.04320987654320988,4.320987654320988,0)" xlink:href="#aF"/><use transform="matrix(0.04320987654320988,0,0,0.04320987654320988,12.962962962962964,0)" xlink:href="#aw"/><use transform="matrix(0.04320987654320988,0,0,0.04320987654320988,18.10493827160494,0)" xlink:href="#aC"/><use transform="matrix(0.04320987654320988,0,0,0.04320987654320988,26.746913580246915,0)" xlink:href="#aD"/><use transform="matrix(0.04320987654320988,0,0,0.04320987654320988,35.38888888888889,0)" xlink:href="#ay"/><use transform="matrix(0.04320987654320988,0,0,0.04320987654320988,44.03086419753087,0)" xlink:href="#aF"/><use transform="matrix(0.04320987654320988,0,0,0.04320987654320988,52.67283950617284,0)" xlink:href="#aG"/><use transform="matrix(0.04320987654320988,0,0,0.04320987654320988,61.314814814814824,0)" xlink:href="#aD"/><use transform="matrix(0.04320987654320988,0,0,0.04320987654320988,69.9567901234568,0)" xlink:href="#av"/><use transform="matrix(0.04320987654320988,0,0,0.04320987654320988,74.27777777777779,0)" xlink:href="#aI"/><use transform="matrix(0.04320987654320988,0,0,0.04320987654320988,82.91975308641976,0)" xlink:href="#aJ"/><use transform="matrix(0.04320987654320988,0,0,0.04320987654320988,94.11111111111111,0)" xlink:href="#aq"/><use transform="matrix(0.04320987654320988,0,0,0.04320987654320988,102.7530864197531,0)" xlink:href="#aB"/><use transform="matrix(0.04320987654320988,0,0,0.04320987654320988,106.16666666666667,0)" xlink:href="#aE"/><use transform="matrix(0.04320987654320988,0,0,0.04320987654320988,113.94444444444446,0)" xlink:href="#aD"/><use transform="matrix(0.04320987654320988,0,0,0.04320987654320988,122.58641975308643,0)" xlink:href="#aB"/><use transform="matrix(0.04320987654320988,0,0,0.04320987654320988,126.00000000000001,0)" xlink:href="#aq"/><use transform="matrix(0.04320987654320988,0,0,0.04320987654320988,134.641975308642,0)" xlink:href="#av"/><use transform="matrix(0.04320987654320988,0,0,0.04320987654320988,138.962962962963,0)" xlink:href="#ax"/><use transform="matrix(0.04320987654320988,0,0,0.04320987654320988,142.37654320987656,0)" xlink:href="#aC"/><use transform="matrix(0.04320987654320988,0,0,0.04320987654320988,151.01851851851853,0)" xlink:href="#ap"/></g><g id="t"><use transform="matrix(0.04320987654320988,0,0,0.04320987654320988,0,0)" xlink:href="#aq"/><use transform="matrix(0.04320987654320988,0,0,0.04320987654320988,8.641975308641976,0)" xlink:href="#az"/><use transform="matrix(0.04320987654320988,0,0,0.04320987654320988,19.833333333333336,0)" xlink:href="#av"/><use transform="matrix(0.04320987654320988,0,0,0.04320987654320988,24.154320987654323,0)" xlink:href="#aI"/><use transform="matrix(0.04320987654320988,0,0,0.04320987654320988,32.7962962962963,0)" xlink:href="#aJ"/><use transform="matrix(0.04320987654320988,0,0,0.04320987654320988,43.98765432098766,0)" xlink:href="#aq"/><use transform="matrix(0.04320987654320988,0,0,0.04320987654320988,52.62962962962963,0)" xlink:href="#aB"/><use transform="matrix(0.04320987654320988,0,0,0.04320987654320988,56.043209876543216,0)" xlink:href="#aE"/><use transform="matrix(0.04320987654320988,0,0,0.04320987654320988,63.820987654320994,0)" xlink:href="#aD"/><use transform="matrix(0.04320987654320988,0,0,0.04320987654320988,72.46296296296298,0)" xlink:href="#aB"/><use transform="matrix(0.04320987654320988,0,0,0.04320987654320988,75.87654320987656,0)" xlink:href="#aq"/><use transform="matrix(0.04320987654320988,0,0,0.04320987654320988,84.51851851851853,0)" xlink:href="#av"/><use transform="matrix(0.04320987654320988,0,0,0.04320987654320988,88.83950617283952,0)" xlink:href="#ax"/><use transform="matrix(0.04320987654320988,0,0,0.04320987654320988,92.2530864197531,0)" xlink:href="#aC"/><use transform="matrix(0.04320987654320988,0,0,0.04320987654320988,100.89506172839508,0)" xlink:href="#ap"/></g><g id="u"><use transform="matrix(0.04320987654320988,0,0,0.04320987654320988,0,0)" xlink:href="#aL"/><use transform="matrix(0.04320987654320988,0,0,0.04320987654320988,5.1419753086419755,0)" xlink:href="#at"/></g><g id="v"><use transform="matrix(0.04320987654320988,0,0,0.04320987654320988,0,0)" xlink:href="#aq"/><use transform="matrix(0.04320987654320988,0,0,0.04320987654320988,8.641975308641976,0)" xlink:href="#aw"/><use transform="matrix(0.04320987654320988,0,0,0.04320987654320988,13.783950617283953,0)" xlink:href="#av"/><use transform="matrix(0.04320987654320988,0,0,0.04320987654320988,18.10493827160494,0)" xlink:href="#aI"/><use transform="matrix(0.04320987654320988,0,0,0.04320987654320988,26.746913580246915,0)" xlink:href="#aJ"/><use transform="matrix(0.04320987654320988,0,0,0.04320987654320988,37.93827160493828,0)" xlink:href="#aq"/><use transform="matrix(0.04320987654320988,0,0,0.04320987654320988,46.580246913580254,0)" xlink:href="#aB"/><use transform="matrix(0.04320987654320988,0,0,0.04320987654320988,49.99382716049383,0)" xlink:href="#aE"/><use transform="matrix(0.04320987654320988,0,0,0.04320987654320988,57.77160493827161,0)" xlink:href="#aD"/><use transform="matrix(0.04320987654320988,0,0,0.04320987654320988,66.4135802469136,0)" xlink:href="#aB"/><use transform="matrix(0.04320987654320988,0,0,0.04320987654320988,69.82716049382718,0)" xlink:href="#aq"/><use transform="matrix(0.04320987654320988,0,0,0.04320987654320988,78.46913580246915,0)" xlink:href="#av"/><use transform="matrix(0.04320987654320988,0,0,0.04320987654320988,82.79012345679014,0)" xlink:href="#ax"/><use transform="matrix(0.04320987654320988,0,0,0.04320987654320988,86.20370370370372,0)" xlink:href="#aC"/><use transform="matrix(0.04320987654320988,0,0,0.04320987654320988,94.84567901234568,0)" xlink:href="#ap"/></g><g id="w"><use transform="matrix(0.04320987654320988,0,0,0.04320987654320988,0,0)" xlink:href="#aq"/><use transform="matrix(0.04320987654320988,0,0,0.04320987654320988,8.641975308641976,0)" xlink:href="#av"/><use transform="matrix(0.04320987654320988,0,0,0.04320987654320988,12.962962962962964,0)" xlink:href="#av"/><use transform="matrix(0.04320987654320988,0,0,0.04320987654320988,17.283950617283953,0)" xlink:href="#aI"/><use transform="matrix(0.04320987654320988,0,0,0.04320987654320988,25.925925925925927,0)" xlink:href="#aJ"/><use transform="matrix(0.04320987654320988,0,0,0.04320987654320988,37.11728395061729,0)" xlink:href="#aq"/><use transform="matrix(0.04320987654320988,0,0,0.04320987654320988,45.75925925925927,0)" xlink:href="#aB"/><use transform="matrix(0.04320987654320988,0,0,0.04320987654320988,49.17283950617284,0)" xlink:href="#aE"/><use transform="matrix(0.04320987654320988,0,0,0.04320987654320988,56.95061728395062,0)" xlink:href="#aD"/><use transform="matrix(0.04320987654320988,0,0,0.04320987654320988,65.59259259259261,0)" xlink:href="#aB"/><use transform="matrix(0.04320987654320988,0,0,0.04320987654320988,69.00617283950619,0)" xlink:href="#aq"/><use transform="matrix(0.04320987654320988,0,0,0.04320987654320988,77.64814814814817,0)" xlink:href="#av"/><use transform="matrix(0.04320987654320988,0,0,0.04320987654320988,81.96913580246915,0)" xlink:href="#ax"/><use transform="matrix(0.04320987654320988,0,0,0.04320987654320988,85.38271604938274,0)" xlink:href="#aC"/><use transform="matrix(0.04320987654320988,0,0,0.04320987654320988,94.0246913580247,0)" xlink:href="#ap"/><use transform="matrix(0.04320987654320988,0,0,0.04320987654320988,102.66666666666667,0)" xlink:href="#aK"/></g><path fill="#666" d="M205 0l-28-72H64L36 0H1l101-248h38L239 0h-34zm-38-99l-47-123c-12 45-31 82-46 123h93" id="aM"/><g id="z"><use transform="matrix(0.04320987654320988,0,0,0.04320987654320988,0,0)" xlink:href="#aM"/><use transform="matrix(0.04320987654320988,0,0,0.04320987654320988,10.370370370370372,0)" xlink:href="#aB"/><use transform="matrix(0.04320987654320988,0,0,0.04320987654320988,13.783950617283953,0)" xlink:href="#ay"/><use transform="matrix(0.04320987654320988,0,0,0.04320987654320988,22.425925925925934,0)" xlink:href="#aC"/><use transform="matrix(0.04320987654320988,0,0,0.04320987654320988,31.067901234567906,0)" xlink:href="#aw"/><use transform="matrix(0.04320987654320988,0,0,0.04320987654320988,36.20987654320988,0)" xlink:href="#ax"/><use transform="matrix(0.04320987654320988,0,0,0.04320987654320988,39.62345679012346,0)" xlink:href="#av"/><use transform="matrix(0.04320987654320988,0,0,0.04320987654320988,43.94444444444445,0)" xlink:href="#aF"/><use transform="matrix(0.04320987654320988,0,0,0.04320987654320988,52.586419753086425,0)" xlink:href="#ar"/></g><path d="M118-107v75H92v-75H18v-26h74v-75h26v75h74v26h-74" id="aN"/><use transform="matrix(0.04938271604938272,0,0,0.04938271604938272,0,0)" xlink:href="#aN" id="A"/><path d="M85-194c31 0 48 13 60 33l-1-100h32l1 261h-30c-2-10 0-23-3-31C134-8 116 4 85 4 32 4 16-35 15-94c0-66 23-100 70-100zm9 24c-40 0-46 34-46 75 0 40 6 74 45 74 42 0 51-32 51-76 0-42-9-74-50-73" id="aO"/><path d="M114-163C36-179 61-72 57 0H25l-1-190h30c1 12-1 29 2 39 6-27 23-49 58-41v29" id="aP"/><path d="M24-231v-30h32v30H24zM24 0v-190h32V0H24" id="aQ"/><path d="M108 0H70L1-190h34L89-25l56-165h34" id="aR"/><path d="M100-194c63 0 86 42 84 106H49c0 40 14 67 53 68 26 1 43-12 49-29l28 8c-11 28-37 45-77 45C44 4 14-33 15-96c1-61 26-98 85-98zm52 81c6-60-76-77-97-28-3 7-6 17-6 28h103" id="aS"/><g id="B"><use transform="matrix(0.04938271604938272,0,0,0.04938271604938272,0,0)" xlink:href="#aO"/><use transform="matrix(0.04938271604938272,0,0,0.04938271604938272,9.876543209876544,0)" xlink:href="#aP"/><use transform="matrix(0.04938271604938272,0,0,0.04938271604938272,15.753086419753087,0)" xlink:href="#aQ"/><use transform="matrix(0.04938271604938272,0,0,0.04938271604938272,19.654320987654323,0)" xlink:href="#aR"/><use transform="matrix(0.04938271604938272,0,0,0.04938271604938272,28.543209876543212,0)" xlink:href="#aS"/></g><path d="M87 75C49 33 22-17 22-94c0-76 28-126 65-167h31c-38 41-64 92-64 168S80 34 118 75H87" id="aT"/><use transform="matrix(0.04938271604938272,0,0,0.04938271604938272,0,0)" xlink:href="#aT" id="C"/><path d="M33-261c38 41 65 92 65 168S71 34 33 75H2C39 34 66-17 66-93S39-220 2-261h31" id="aU"/><use transform="matrix(0.04938271604938272,0,0,0.04938271604938272,0,0)" xlink:href="#aU" id="D"/><path d="M33-154v-36h34v36H33zM33 0v-36h34V0H33" id="aV"/><use transform="matrix(0.04938271604938272,0,0,0.04938271604938272,0,0)" xlink:href="#aV" id="E"/><path d="M100-194c62-1 85 37 85 99 1 63-27 99-86 99S16-35 15-95c0-66 28-99 85-99zM99-20c44 1 53-31 53-75 0-43-8-75-51-75s-53 32-53 75 10 74 51 75" id="aW"/><g id="F"><use transform="matrix(0.04938271604938272,0,0,0.04938271604938272,0,0)" xlink:href="#aR"/><use transform="matrix(0.04938271604938272,0,0,0.04938271604938272,8.88888888888889,0)" xlink:href="#aW"/><use transform="matrix(0.04938271604938272,0,0,0.04938271604938272,18.765432098765434,0)" xlink:href="#aQ"/><use transform="matrix(0.04938271604938272,0,0,0.04938271604938272,22.666666666666668,0)" xlink:href="#aO"/></g><path d="M185-189c-5-48-123-54-124 2 14 75 158 14 163 119 3 78-121 87-175 55-17-10-28-26-33-46l33-7c5 56 141 63 141-1 0-78-155-14-162-118-5-82 145-84 179-34 5 7 8 16 11 25" id="aX"/><path d="M233-177c-1 41-23 64-60 70L243 0h-38l-65-103H63V0H30v-248c88 3 205-21 203 71zM63-129c60-2 137 13 137-47 0-61-80-42-137-45v92" id="aY"/><path d="M127-220V0H93v-220H8v-28h204v28h-85" id="aZ"/><g id="H"><use transform="matrix(0.04938271604938272,0,0,0.04938271604938272,0,0)" xlink:href="#aX"/><use transform="matrix(0.04938271604938272,0,0,0.04938271604938272,11.851851851851853,0)" xlink:href="#aY"/><use transform="matrix(0.04938271604938272,0,0,0.04938271604938272,24.296296296296298,0)" xlink:href="#aZ"/></g><path d="M153-248C145-148 188 4 80 4 36 3 13-21 6-62l32-5c4 25 16 42 43 43 27 0 39-20 39-49v-147H72v-28h81" id="ba"/><path d="M63-220v92h138v28H63V0H30v-248h175v28H63" id="bb"/><g id="J"><use transform="matrix(0.04938271604938272,0,0,0.04938271604938272,0,0)" xlink:href="#aX"/><use transform="matrix(0.04938271604938272,0,0,0.04938271604938272,11.851851851851853,0)" xlink:href="#ba"/><use transform="matrix(0.04938271604938272,0,0,0.04938271604938272,20.74074074074074,0)" xlink:href="#bb"/></g><g id="L"><use transform="matrix(0.04938271604938272,0,0,0.04938271604938272,0,0)" xlink:href="#aY"/><use transform="matrix(0.04938271604938272,0,0,0.04938271604938272,12.790123456790125,0)" xlink:href="#aY"/></g><path d="M212-179c-10-28-35-45-73-45-59 0-87 40-87 99 0 60 29 101 89 101 43 0 62-24 78-52l27 14C228-24 195 4 139 4 59 4 22-46 18-125c-6-104 99-153 187-111 19 9 31 26 39 46" id="bc"/><g id="N"><use transform="matrix(0.04938271604938272,0,0,0.04938271604938272,0,0)" xlink:href="#bb"/><use transform="matrix(0.04938271604938272,0,0,0.04938271604938272,10.814814814814815,0)" xlink:href="#bc"/><use transform="matrix(0.04938271604938272,0,0,0.04938271604938272,23.60493827160494,0)" xlink:href="#bb"/><use transform="matrix(0.04938271604938272,0,0,0.04938271604938272,34.41975308641975,0)" xlink:href="#aX"/></g><path d="M30 0v-248h187v28H63v79h144v27H63v87h162V0H30" id="bd"/><path d="M30-248c118-7 216 8 213 122C240-48 200 0 122 0H30v-248zM63-27c89 8 146-16 146-99s-60-101-146-95v194" id="be"/><g id="O"><use transform="matrix(0.04938271604938272,0,0,0.04938271604938272,0,0)" xlink:href="#bd"/><use transform="matrix(0.04938271604938272,0,0,0.04938271604938272,11.851851851851853,0)" xlink:href="#be"/><use transform="matrix(0.04938271604938272,0,0,0.04938271604938272,24.641975308641978,0)" xlink:href="#bb"/></g><path fill="#666" d="M232-93c-1 65-40 97-104 97C67 4 28-28 28-90v-158h33c8 89-33 224 67 224 102 0 64-133 71-224h33v155" id="bf"/><path fill="#666" d="M240 0l2-218c-23 76-54 145-80 218h-23L58-218 59 0H30v-248h44l77 211c21-75 51-140 76-211h43V0h-30" id="bg"/><path fill="#666" d="M85-194c31 0 48 13 60 33l-1-100h32l1 261h-30c-2-10 0-23-3-31C134-8 116 4 85 4 32 4 16-35 15-94c0-66 23-100 70-100zm9 24c-40 0-46 34-46 75 0 40 6 74 45 74 42 0 51-32 51-76 0-42-9-74-50-73" id="bh"/><path fill="#666" d="M135-143c-3-34-86-38-87 0 15 53 115 12 119 90S17 21 10-45l28-5c4 36 97 45 98 0-10-56-113-15-118-90-4-57 82-63 122-42 12 7 21 19 24 35" id="bi"/><g id="Q"><use transform="matrix(0.07345679012345684,0,0,0.07345679012345684,0,0)" xlink:href="#bf"/><use transform="matrix(0.07345679012345684,0,0,0.07345679012345684,19.02530864197532,0)" xlink:href="#av"/><use transform="matrix(0.07345679012345684,0,0,0.07345679012345684,26.370987654321006,0)" xlink:href="#ax"/><use transform="matrix(0.07345679012345684,0,0,0.07345679012345684,32.1740740740741,0)" xlink:href="#aB"/><use transform="matrix(0.07345679012345684,0,0,0.07345679012345684,37.97716049382719,0)" xlink:href="#as"/><use transform="matrix(0.07345679012345684,0,0,0.07345679012345684,52.66851851851856,0)" xlink:href="#bg"/><use transform="matrix(0.07345679012345684,0,0,0.07345679012345684,74.63209876543215,0)" xlink:href="#as"/><use transform="matrix(0.07345679012345684,0,0,0.07345679012345684,89.32345679012352,0)" xlink:href="#av"/><use transform="matrix(0.07345679012345684,0,0,0.07345679012345684,96.6691358024692,0)" xlink:href="#aF"/><use transform="matrix(0.07345679012345684,0,0,0.07345679012345684,111.36049382716057,0)" xlink:href="#aC"/><use transform="matrix(0.07345679012345684,0,0,0.07345679012345684,126.05185185185194,0)" xlink:href="#bh"/><use transform="matrix(0.07345679012345684,0,0,0.07345679012345684,140.7432098765433,0)" xlink:href="#bi"/></g><use transform="matrix(0.04320987654320988,0,0,0.04320987654320988,0,0)" xlink:href="#aH" id="R"/><path fill="#666" d="M30-248c87 1 191-15 191 75 0 78-77 80-158 76V0H30v-248zm33 125c57 0 124 11 124-50 0-59-68-47-124-48v98" id="bj"/><g id="S"><use transform="matrix(0.04320987654320988,0,0,0.04320987654320988,0,0)" xlink:href="#bi"/><use transform="matrix(0.04320987654320988,0,0,0.04320987654320988,7.777777777777779,0)" xlink:href="#as"/><use transform="matrix(0.04320987654320988,0,0,0.04320987654320988,16.419753086419753,0)" xlink:href="#av"/><use transform="matrix(0.04320987654320988,0,0,0.04320987654320988,20.74074074074074,0)" xlink:href="#bj"/><use transform="matrix(0.04320987654320988,0,0,0.04320987654320988,31.111111111111114,0)" xlink:href="#aq"/><use transform="matrix(0.04320987654320988,0,0,0.04320987654320988,39.75308641975309,0)" xlink:href="#aw"/><use transform="matrix(0.04320987654320988,0,0,0.04320987654320988,44.89506172839506,0)" xlink:href="#aq"/><use transform="matrix(0.04320987654320988,0,0,0.04320987654320988,53.537037037037045,0)" xlink:href="#ar"/></g><path fill="#666" d="M30 0v-248h33v221h125V0H30" id="bk"/><path fill="#666" d="M18-100v-36l175-74v27L42-118l151 64v27" id="bl"/><path fill="#666" d="M127-220V0H93v-220H8v-28h204v28h-85" id="bm"/><path fill="#666" d="M143 0L79-87 56-68V0H24v-261h32v163l83-92h37l-77 82L181 0h-38" id="bn"/><path fill="#666" d="M18-27v-27l151-64-151-65v-27l175 74v36" id="bo"/><g id="T"><use transform="matrix(0.04320987654320988,0,0,0.04320987654320988,0,0)" xlink:href="#bk"/><use transform="matrix(0.04320987654320988,0,0,0.04320987654320988,8.641975308641976,0)" xlink:href="#ax"/><use transform="matrix(0.04320987654320988,0,0,0.04320987654320988,12.055555555555557,0)" xlink:href="#bi"/><use transform="matrix(0.04320987654320988,0,0,0.04320987654320988,19.833333333333336,0)" xlink:href="#av"/><use transform="matrix(0.04320987654320988,0,0,0.04320987654320988,24.154320987654323,0)" xlink:href="#bl"/><use transform="matrix(0.04320987654320988,0,0,0.04320987654320988,33.2283950617284,0)" xlink:href="#bm"/><use transform="matrix(0.04320987654320988,0,0,0.04320987654320988,40.96296296296297,0)" xlink:href="#aq"/><use transform="matrix(0.04320987654320988,0,0,0.04320987654320988,49.604938271604944,0)" xlink:href="#bi"/><use transform="matrix(0.04320987654320988,0,0,0.04320987654320988,57.38271604938272,0)" xlink:href="#bn"/><use transform="matrix(0.04320987654320988,0,0,0.04320987654320988,65.16049382716051,0)" xlink:href="#bo"/></g><g id="U"><use transform="matrix(0.04320987654320988,0,0,0.04320987654320988,0,0)" xlink:href="#bj"/><use transform="matrix(0.04320987654320988,0,0,0.04320987654320988,10.370370370370372,0)" xlink:href="#aw"/><use transform="matrix(0.04320987654320988,0,0,0.04320987654320988,15.512345679012347,0)" xlink:href="#ax"/><use transform="matrix(0.04320987654320988,0,0,0.04320987654320988,18.92592592592593,0)" xlink:href="#ap"/><use transform="matrix(0.04320987654320988,0,0,0.04320987654320988,27.567901234567906,0)" xlink:href="#av"/><use transform="matrix(0.04320987654320988,0,0,0.04320987654320988,31.888888888888893,0)" xlink:href="#as"/><use transform="matrix(0.04320987654320988,0,0,0.04320987654320988,40.53086419753087,0)" xlink:href="#aw"/></g><g id="V"><use transform="matrix(0.04320987654320988,0,0,0.04320987654320988,0,0)" xlink:href="#au"/><use transform="matrix(0.04320987654320988,0,0,0.04320987654320988,10.370370370370372,0)" xlink:href="#av"/><use transform="matrix(0.04320987654320988,0,0,0.04320987654320988,14.691358024691363,0)" xlink:href="#aw"/><use transform="matrix(0.04320987654320988,0,0,0.04320987654320988,19.833333333333336,0)" xlink:href="#ax"/><use transform="matrix(0.04320987654320988,0,0,0.04320987654320988,23.246913580246915,0)" xlink:href="#ap"/><use transform="matrix(0.04320987654320988,0,0,0.04320987654320988,31.888888888888893,0)" xlink:href="#ay"/></g><path fill="#666" d="M108 0H70L1-190h34L89-25l56-165h34" id="bp"/><g id="W"><use transform="matrix(0.04320987654320988,0,0,0.04320987654320988,0,0)" xlink:href="#bi"/><use transform="matrix(0.04320987654320988,0,0,0.04320987654320988,7.777777777777779,0)" xlink:href="#aC"/><use transform="matrix(0.04320987654320988,0,0,0.04320987654320988,16.419753086419753,0)" xlink:href="#aw"/><use transform="matrix(0.04320987654320988,0,0,0.04320987654320988,21.561728395061728,0)" xlink:href="#av"/><use transform="matrix(0.04320987654320988,0,0,0.04320987654320988,25.882716049382715,0)" xlink:href="#aI"/><use transform="matrix(0.04320987654320988,0,0,0.04320987654320988,34.52469135802469,0)" xlink:href="#aC"/><use transform="matrix(0.04320987654320988,0,0,0.04320987654320988,43.166666666666664,0)" xlink:href="#ap"/><use transform="matrix(0.04320987654320988,0,0,0.04320987654320988,51.80864197530864,0)" xlink:href="#aM"/><use transform="matrix(0.04320987654320988,0,0,0.04320987654320988,62.179012345679006,0)" xlink:href="#aw"/><use transform="matrix(0.04320987654320988,0,0,0.04320987654320988,67.32098765432099,0)" xlink:href="#aw"/><use transform="matrix(0.04320987654320988,0,0,0.04320987654320988,72.46296296296296,0)" xlink:href="#ax"/><use transform="matrix(0.04320987654320988,0,0,0.04320987654320988,75.87654320987654,0)" xlink:href="#bp"/><use transform="matrix(0.04320987654320988,0,0,0.04320987654320988,83.65432098765433,0)" xlink:href="#aq"/><use transform="matrix(0.04320987654320988,0,0,0.04320987654320988,92.2962962962963,0)" xlink:href="#aB"/></g><path fill="#666" d="M160-131c35 5 61 23 61 61C221 17 115-2 30 0v-248c76 3 177-17 177 60 0 33-19 50-47 57zm-97-11c50-1 110 9 110-42 0-47-63-36-110-37v79zm0 115c55-2 124 14 124-45 0-56-70-42-124-44v89" id="bq"/><g id="X"><use transform="matrix(0.04320987654320988,0,0,0.04320987654320988,0,0)" xlink:href="#bi"/><use transform="matrix(0.04320987654320988,0,0,0.04320987654320988,7.777777777777779,0)" xlink:href="#aC"/><use transform="matrix(0.04320987654320988,0,0,0.04320987654320988,16.419753086419753,0)" xlink:href="#aw"/><use transform="matrix(0.04320987654320988,0,0,0.04320987654320988,21.561728395061728,0)" xlink:href="#av"/><use transform="matrix(0.04320987654320988,0,0,0.04320987654320988,25.882716049382715,0)" xlink:href="#aI"/><use transform="matrix(0.04320987654320988,0,0,0.04320987654320988,34.52469135802469,0)" xlink:href="#aC"/><use transform="matrix(0.04320987654320988,0,0,0.04320987654320988,43.166666666666664,0)" xlink:href="#ap"/><use transform="matrix(0.04320987654320988,0,0,0.04320987654320988,51.80864197530864,0)" xlink:href="#bq"/><use transform="matrix(0.04320987654320988,0,0,0.04320987654320988,62.179012345679006,0)" xlink:href="#aD"/><use transform="matrix(0.04320987654320988,0,0,0.04320987654320988,70.82098765432099,0)" xlink:href="#aw"/><use transform="matrix(0.04320987654320988,0,0,0.04320987654320988,75.96296296296296,0)" xlink:href="#bi"/><use transform="matrix(0.04320987654320988,0,0,0.04320987654320988,83.74074074074073,0)" xlink:href="#av"/></g><path fill="#666" d="M30-248c118-7 216 8 213 122C240-48 200 0 122 0H30v-248zM63-27c89 8 146-16 146-99s-60-101-146-95v194" id="br"/><g id="Y"><use transform="matrix(0.04320987654320988,0,0,0.04320987654320988,0,0)" xlink:href="#bi"/><use transform="matrix(0.04320987654320988,0,0,0.04320987654320988,7.777777777777779,0)" xlink:href="#aC"/><use transform="matrix(0.04320987654320988,0,0,0.04320987654320988,16.419753086419753,0)" xlink:href="#aw"/><use transform="matrix(0.04320987654320988,0,0,0.04320987654320988,21.561728395061728,0)" xlink:href="#av"/><use transform="matrix(0.04320987654320988,0,0,0.04320987654320988,25.882716049382715,0)" xlink:href="#aI"/><use transform="matrix(0.04320987654320988,0,0,0.04320987654320988,34.52469135802469,0)" xlink:href="#aC"/><use transform="matrix(0.04320987654320988,0,0,0.04320987654320988,43.166666666666664,0)" xlink:href="#ap"/><use transform="matrix(0.04320987654320988,0,0,0.04320987654320988,51.80864197530864,0)" xlink:href="#br"/><use transform="matrix(0.04320987654320988,0,0,0.04320987654320988,63,0)" xlink:href="#as"/><use transform="matrix(0.04320987654320988,0,0,0.04320987654320988,71.64197530864197,0)" xlink:href="#aq"/><use transform="matrix(0.04320987654320988,0,0,0.04320987654320988,80.28395061728395,0)" xlink:href="#bh"/><use transform="matrix(0.04320987654320988,0,0,0.04320987654320988,88.92592592592591,0)" xlink:href="#aB"/><use transform="matrix(0.04320987654320988,0,0,0.04320987654320988,92.33950617283952,0)" xlink:href="#ax"/><use transform="matrix(0.04320987654320988,0,0,0.04320987654320988,95.7530864197531,0)" xlink:href="#ap"/><use transform="matrix(0.04320987654320988,0,0,0.04320987654320988,104.39506172839508,0)" xlink:href="#as"/></g><g id="Z"><use transform="matrix(0.04320987654320988,0,0,0.04320987654320988,0,0)" xlink:href="#bk"/><use transform="matrix(0.04320987654320988,0,0,0.04320987654320988,8.641975308641976,0)" xlink:href="#ax"/><use transform="matrix(0.04320987654320988,0,0,0.04320987654320988,12.055555555555557,0)" xlink:href="#bi"/><use transform="matrix(0.04320987654320988,0,0,0.04320987654320988,19.833333333333336,0)" xlink:href="#av"/><use transform="matrix(0.04320987654320988,0,0,0.04320987654320988,24.154320987654323,0)" xlink:href="#bl"/><use transform="matrix(0.04320987654320988,0,0,0.04320987654320988,33.2283950617284,0)" xlink:href="#bm"/><use transform="matrix(0.04320987654320988,0,0,0.04320987654320988,40.96296296296297,0)" xlink:href="#aq"/><use transform="matrix(0.04320987654320988,0,0,0.04320987654320988,49.604938271604944,0)" xlink:href="#bi"/><use transform="matrix(0.04320987654320988,0,0,0.04320987654320988,57.38271604938272,0)" xlink:href="#bn"/><use transform="matrix(0.04320987654320988,0,0,0.04320987654320988,65.16049382716051,0)" xlink:href="#bo"/></g><path fill="#666" d="M233-177c-1 41-23 64-60 70L243 0h-38l-65-103H63V0H30v-248c88 3 205-21 203 71zM63-129c60-2 137 13 137-47 0-61-80-42-137-45v92" id="bs"/><g id="aa"><use transform="matrix(0.04320987654320988,0,0,0.04320987654320988,0,0)" xlink:href="#bi"/><use transform="matrix(0.04320987654320988,0,0,0.04320987654320988,7.777777777777779,0)" xlink:href="#aC"/><use transform="matrix(0.04320987654320988,0,0,0.04320987654320988,16.419753086419753,0)" xlink:href="#aw"/><use transform="matrix(0.04320987654320988,0,0,0.04320987654320988,21.561728395061728,0)" xlink:href="#av"/><use transform="matrix(0.04320987654320988,0,0,0.04320987654320988,25.882716049382715,0)" xlink:href="#aI"/><use transform="matrix(0.04320987654320988,0,0,0.04320987654320988,34.52469135802469,0)" xlink:href="#aC"/><use transform="matrix(0.04320987654320988,0,0,0.04320987654320988,43.166666666666664,0)" xlink:href="#ap"/><use transform="matrix(0.04320987654320988,0,0,0.04320987654320988,51.80864197530864,0)" xlink:href="#bs"/><use transform="matrix(0.04320987654320988,0,0,0.04320987654320988,63,0)" xlink:href="#as"/><use transform="matrix(0.04320987654320988,0,0,0.04320987654320988,71.64197530864197,0)" xlink:href="#ar"/></g><path fill="#666" d="M140-251c81 0 123 46 123 126C263-46 219 4 140 4 59 4 17-45 17-125s42-126 123-126zm0 227c63 0 89-41 89-101s-29-99-89-99c-61 0-89 39-89 99S79-25 140-24" id="bt"/><path fill="#666" d="M9 0v-24l116-142H16v-24h144v24L44-24h123V0H9" id="bu"/><g id="ab"><use transform="matrix(0.04320987654320988,0,0,0.04320987654320988,0,0)" xlink:href="#aG"/><use transform="matrix(0.04320987654320988,0,0,0.04320987654320988,8.641975308641976,0)" xlink:href="#aw"/><use transform="matrix(0.04320987654320988,0,0,0.04320987654320988,13.783950617283953,0)" xlink:href="#as"/><use transform="matrix(0.04320987654320988,0,0,0.04320987654320988,22.425925925925934,0)" xlink:href="#as"/><use transform="matrix(0.04320987654320988,0,0,0.04320987654320988,31.067901234567906,0)" xlink:href="#aG"/><use transform="matrix(0.04320987654320988,0,0,0.04320987654320988,39.70987654320988,0)" xlink:href="#av"/><use transform="matrix(0.04320987654320988,0,0,0.04320987654320988,44.03086419753087,0)" xlink:href="#ax"/><use transform="matrix(0.04320987654320988,0,0,0.04320987654320988,47.44444444444445,0)" xlink:href="#bp"/><use transform="matrix(0.04320987654320988,0,0,0.04320987654320988,55.22222222222223,0)" xlink:href="#as"/><use transform="matrix(0.04320987654320988,0,0,0.04320987654320988,63.8641975308642,0)" xlink:href="#aI"/><use transform="matrix(0.04320987654320988,0,0,0.04320987654320988,72.50617283950618,0)" xlink:href="#bt"/><use transform="matrix(0.04320987654320988,0,0,0.04320987654320988,84.60493827160494,0)" xlink:href="#aw"/><use transform="matrix(0.04320987654320988,0,0,0.04320987654320988,89.7469135802469,0)" xlink:href="#ay"/><use transform="matrix(0.04320987654320988,0,0,0.04320987654320988,98.38888888888889,0)" xlink:href="#ap"/><use transform="matrix(0.04320987654320988,0,0,0.04320987654320988,107.03086419753086,0)" xlink:href="#ax"/><use transform="matrix(0.04320987654320988,0,0,0.04320987654320988,110.44444444444444,0)" xlink:href="#bu"/><use transform="matrix(0.04320987654320988,0,0,0.04320987654320988,118.22222222222223,0)" xlink:href="#as"/><use transform="matrix(0.04320987654320988,0,0,0.04320987654320988,126.86419753086422,0)" xlink:href="#aw"/></g><g id="ad"><use transform="matrix(0.07345679012345684,0,0,0.07345679012345684,0,0)" xlink:href="#bm"/><use transform="matrix(0.07345679012345684,0,0,0.07345679012345684,13.148765432098772,0)" xlink:href="#aq"/><use transform="matrix(0.07345679012345684,0,0,0.07345679012345684,27.84012345679014,0)" xlink:href="#bi"/><use transform="matrix(0.07345679012345684,0,0,0.07345679012345684,41.06234567901236,0)" xlink:href="#bn"/></g><path fill="#666" d="M115-194c53 0 69 39 70 98 0 66-23 100-70 100C84 3 66-7 56-30L54 0H23l1-261h32v101c10-23 28-34 59-34zm-8 174c40 0 45-34 45-75 0-40-5-75-45-74-42 0-51 32-51 76 0 43 10 73 51 73" id="bv"/><g id="ae"><use transform="matrix(0.04320987654320988,0,0,0.04320987654320988,0,0)" xlink:href="#bv"/><use transform="matrix(0.04320987654320988,0,0,0.04320987654320988,8.641975308641976,0)" xlink:href="#aD"/><use transform="matrix(0.04320987654320988,0,0,0.04320987654320988,17.283950617283953,0)" xlink:href="#aw"/><use transform="matrix(0.04320987654320988,0,0,0.04320987654320988,22.425925925925927,0)" xlink:href="#bi"/><use transform="matrix(0.04320987654320988,0,0,0.04320987654320988,30.203703703703706,0)" xlink:href="#av"/><use transform="matrix(0.04320987654320988,0,0,0.04320987654320988,34.5246913580247,0)" xlink:href="#bm"/><use transform="matrix(0.04320987654320988,0,0,0.04320987654320988,43.42592592592593,0)" xlink:href="#ax"/><use transform="matrix(0.04320987654320988,0,0,0.04320987654320988,46.83950617283951,0)" xlink:href="#ar"/><use transform="matrix(0.04320987654320988,0,0,0.04320987654320988,59.75925925925927,0)" xlink:href="#as"/></g><g id="af"><use transform="matrix(0.04320987654320988,0,0,0.04320987654320988,0,0)" xlink:href="#ax"/><use transform="matrix(0.04320987654320988,0,0,0.04320987654320988,3.4135802469135808,0)" xlink:href="#ap"/><use transform="matrix(0.04320987654320988,0,0,0.04320987654320988,12.055555555555557,0)" xlink:href="#av"/></g><g id="ag"><use transform="matrix(0.04320987654320988,0,0,0.04320987654320988,0,0)" xlink:href="#aq"/><use transform="matrix(0.04320987654320988,0,0,0.04320987654320988,8.641975308641976,0)" xlink:href="#aw"/><use transform="matrix(0.04320987654320988,0,0,0.04320987654320988,13.783950617283953,0)" xlink:href="#aw"/><use transform="matrix(0.04320987654320988,0,0,0.04320987654320988,18.925925925925927,0)" xlink:href="#ax"/><use transform="matrix(0.04320987654320988,0,0,0.04320987654320988,22.33950617283951,0)" xlink:href="#bp"/><use transform="matrix(0.04320987654320988,0,0,0.04320987654320988,30.11728395061729,0)" xlink:href="#aq"/><use transform="matrix(0.04320987654320988,0,0,0.04320987654320988,38.75925925925926,0)" xlink:href="#aB"/><use transform="matrix(0.04320987654320988,0,0,0.04320987654320988,42.17283950617284,0)" xlink:href="#bm"/><use transform="matrix(0.04320987654320988,0,0,0.04320987654320988,51.074074074074076,0)" xlink:href="#ax"/><use transform="matrix(0.04320987654320988,0,0,0.04320987654320988,54.48765432098766,0)" xlink:href="#ar"/><use transform="matrix(0.04320987654320988,0,0,0.04320987654320988,67.40740740740742,0)" xlink:href="#as"/></g><g id="ah"><use transform="matrix(0.04320987654320988,0,0,0.04320987654320988,0,0)" xlink:href="#bi"/><use transform="matrix(0.04320987654320988,0,0,0.04320987654320988,7.777777777777779,0)" xlink:href="#av"/><use transform="matrix(0.04320987654320988,0,0,0.04320987654320988,12.098765432098766,0)" xlink:href="#aq"/><use transform="matrix(0.04320987654320988,0,0,0.04320987654320988,20.74074074074074,0)" xlink:href="#aw"/><use transform="matrix(0.04320987654320988,0,0,0.04320987654320988,25.882716049382715,0)" xlink:href="#av"/><use transform="matrix(0.04320987654320988,0,0,0.04320987654320988,30.203703703703702,0)" xlink:href="#bm"/><use transform="matrix(0.04320987654320988,0,0,0.04320987654320988,39.10493827160494,0)" xlink:href="#ax"/><use transform="matrix(0.04320987654320988,0,0,0.04320987654320988,42.51851851851852,0)" xlink:href="#ar"/><use transform="matrix(0.04320987654320988,0,0,0.04320987654320988,55.438271604938265,0)" xlink:href="#as"/></g><g id="ai"><use transform="matrix(0.04320987654320988,0,0,0.04320987654320988,0,0)" xlink:href="#as"/><use transform="matrix(0.04320987654320988,0,0,0.04320987654320988,8.641975308641976,0)" xlink:href="#ap"/><use transform="matrix(0.04320987654320988,0,0,0.04320987654320988,17.283950617283953,0)" xlink:href="#bh"/><use transform="matrix(0.04320987654320988,0,0,0.04320987654320988,25.925925925925927,0)" xlink:href="#bm"/><use transform="matrix(0.04320987654320988,0,0,0.04320987654320988,34.827160493827165,0)" xlink:href="#ax"/><use transform="matrix(0.04320987654320988,0,0,0.04320987654320988,38.24074074074075,0)" xlink:href="#ar"/><use transform="matrix(0.04320987654320988,0,0,0.04320987654320988,51.1604938271605,0)" xlink:href="#as"/></g><g id="aj"><use transform="matrix(0.04320987654320988,0,0,0.04320987654320988,0,0)" xlink:href="#bh"/><use transform="matrix(0.04320987654320988,0,0,0.04320987654320988,8.641975308641976,0)" xlink:href="#as"/><use transform="matrix(0.04320987654320988,0,0,0.04320987654320988,17.283950617283953,0)" xlink:href="#aq"/><use transform="matrix(0.04320987654320988,0,0,0.04320987654320988,25.925925925925927,0)" xlink:href="#bh"/><use transform="matrix(0.04320987654320988,0,0,0.04320987654320988,34.567901234567906,0)" xlink:href="#bk"/><use transform="matrix(0.04320987654320988,0,0,0.04320987654320988,43.20987654320988,0)" xlink:href="#ax"/><use transform="matrix(0.04320987654320988,0,0,0.04320987654320988,46.62345679012346,0)" xlink:href="#ap"/><use transform="matrix(0.04320987654320988,0,0,0.04320987654320988,55.26543209876544,0)" xlink:href="#as"/></g><g id="ak"><use transform="matrix(0.04320987654320988,0,0,0.04320987654320988,0,0)" xlink:href="#aw"/><use transform="matrix(0.04320987654320988,0,0,0.04320987654320988,5.1419753086419755,0)" xlink:href="#as"/><use transform="matrix(0.04320987654320988,0,0,0.04320987654320988,13.783950617283953,0)" xlink:href="#ar"/><use transform="matrix(0.04320987654320988,0,0,0.04320987654320988,26.703703703703713,0)" xlink:href="#aq"/><use transform="matrix(0.04320987654320988,0,0,0.04320987654320988,35.345679012345684,0)" xlink:href="#ax"/><use transform="matrix(0.04320987654320988,0,0,0.04320987654320988,38.75925925925927,0)" xlink:href="#ap"/><use transform="matrix(0.04320987654320988,0,0,0.04320987654320988,47.40123456790124,0)" xlink:href="#bm"/><use transform="matrix(0.04320987654320988,0,0,0.04320987654320988,56.302469135802475,0)" xlink:href="#ax"/><use transform="matrix(0.04320987654320988,0,0,0.04320987654320988,59.71604938271606,0)" xlink:href="#ar"/><use transform="matrix(0.04320987654320988,0,0,0.04320987654320988,72.63580246913581,0)" xlink:href="#as"/></g><g id="al"><use transform="matrix(0.04320987654320988,0,0,0.04320987654320988,0,0)" xlink:href="#aA"/><use transform="matrix(0.04320987654320988,0,0,0.04320987654320988,4.320987654320988,0)" xlink:href="#aB"/><use transform="matrix(0.04320987654320988,0,0,0.04320987654320988,7.734567901234569,0)" xlink:href="#aq"/><use transform="matrix(0.04320987654320988,0,0,0.04320987654320988,16.376543209876544,0)" xlink:href="#ay"/></g><g id="am"><use transform="matrix(0.04320987654320988,0,0,0.04320987654320988,0,0)" xlink:href="#bv"/><use transform="matrix(0.04320987654320988,0,0,0.04320987654320988,8.641975308641976,0)" xlink:href="#aC"/><use transform="matrix(0.04320987654320988,0,0,0.04320987654320988,17.283950617283953,0)" xlink:href="#aC"/><use transform="matrix(0.04320987654320988,0,0,0.04320987654320988,25.925925925925927,0)" xlink:href="#aB"/><use transform="matrix(0.04320987654320988,0,0,0.04320987654320988,29.339506172839513,0)" xlink:href="#as"/><use transform="matrix(0.04320987654320988,0,0,0.04320987654320988,37.98148148148149,0)" xlink:href="#aq"/><use transform="matrix(0.04320987654320988,0,0,0.04320987654320988,46.62345679012346,0)" xlink:href="#ap"/></g><g id="an"><use transform="matrix(0.04320987654320988,0,0,0.04320987654320988,0,0)" xlink:href="#bi"/><use transform="matrix(0.04320987654320988,0,0,0.04320987654320988,7.777777777777779,0)" xlink:href="#av"/><use transform="matrix(0.04320987654320988,0,0,0.04320987654320988,12.098765432098766,0)" xlink:href="#aq"/><use transform="matrix(0.04320987654320988,0,0,0.04320987654320988,20.74074074074074,0)" xlink:href="#av"/><use transform="matrix(0.04320987654320988,0,0,0.04320987654320988,25.061728395061728,0)" xlink:href="#aD"/><use transform="matrix(0.04320987654320988,0,0,0.04320987654320988,33.7037037037037,0)" xlink:href="#bi"/></g></defs></g></svg>